<?xml version="1.0" standalone="no"?>
<!DOCTYPE svg PUBLIC "-//W3C//DTD SVG 20010904//EN"
 "http://www.w3.org/TR/2001/REC-SVG-20010904/DTD/svg10.dtd">
<svg version="1.0" xmlns="http://www.w3.org/2000/svg"
 width="120.000000pt" height="120.000000pt" viewBox="0 0 120.000000 120.000000"
 preserveAspectRatio="xMidYMid meet">
<metadata>
Created by potrace 1.11, written by Peter Selinger 2001-2013
</metadata>
<g transform="translate(0.000000,120.000000) scale(0.100000,-0.100000)"
fill="#000000" stroke="none">
<path d="M0 600 l0 -600 600 0 600 0 0 600 0 600 -600 0 -600 0 0 -600z m733
391 c57 -18 129 -60 124 -73 -1 -3 -28 -33 -60 -67 l-57 -60 -43 25 c-44 25
-82 30 -107 14 -26 -16 1 -41 75 -67 96 -35 140 -67 166 -120 40 -82 8 -184
-74 -240 -65 -44 -140 -58 -225 -43 -72 12 -139 38 -177 68 l-24 19 63 69 62
68 34 -24 c21 -15 52 -25 85 -28 98 -8 78 42 -30 78 -75 25 -138 68 -160 109
-8 17 -15 53 -15 82 0 156 181 251 363 190z"/>
</g>
</svg>
